<mxfile host="app.diagrams.net" modified="2023-06-29T10:46:53.853Z" agent="Mozilla/5.0 (Windows NT 10.0; Win64; x64; rv:109.0) Gecko/20100101 Firefox/114.0" version="21.3.8" etag="dEwLyf6zea4jCXZLw_ba" type="github">
  <diagram name="第 1 页" id="aXWCKI95lCnfZfkOBbSz">
    <mxGraphModel>
      <root>
        <mxCell id="0" />
        <mxCell id="1" parent="0" />
      </root>
    </mxGraphModel>
  </diagram>
</mxfile>
